<svg id="Group_7" data-name="Group 7" xmlns="http://www.w3.org/2000/svg" width="107.795" height="109.258" viewBox="0 0 107.795 109.258">
  <path id="Path_212" data-name="Path 212" d="M122.539,168l21.755,20.945h37.445L161.912,168Z" transform="translate(-122.539 -148.45)" fill="#fff"/>
  <path id="Path_213" data-name="Path 213" d="M144.4,317.389l-21.706,20.9H162.06l19.782-20.9Z" transform="translate(-122.642 -249.221)" fill="#fff"/>
  <path id="Path_214" data-name="Path 214" d="M135.178,244.393v8.132h-6.755v-8.132h-4.6v19.839h4.6v-7.521h6.755v7.521h4.634V244.393Z" transform="translate(-123.402 -199.981)" fill="#fff"/>
  <path id="Path_215" data-name="Path 215" d="M243.619,244.393h-4.634v19.839h11.822v-4.184h-7.188Z" transform="translate(-201.088 -199.981)" fill="#fff"/>
  <rect id="Rectangle_33" data-name="Rectangle 33" width="4.689" height="19.839" transform="translate(51.868 44.413)" fill="#fff"/>
  <path id="Path_216" data-name="Path 216" d="M309.079,248.577h8.729v-4.185H304.446v19.84h4.633V256.71h7.233v-4.185h-7.233Z" transform="translate(-245.245 -199.98)" fill="#fff"/>
  <path id="Path_217" data-name="Path 217" d="M184.282,244.394l-6.708,19.839h4.762l1.135-3.6h6.69l1.134,3.6h4.763l-6.7-19.839Zm.422,12.317L186.816,250l2.111,6.708Z" transform="translate(-159.663 -199.981)" fill="#fff"/>
  <path id="Path_218" data-name="Path 218" d="M376.883,244.394h-5.256l-3.734,5.994-3.735-5.994H358.9l6.47,9.919-5.987,9.177-6.45-19.1h-5.076l-6.707,19.839h4.761l1.135-3.6h6.691l1.134,3.6h9.284l3.735-5.994,3.734,5.994h5.256l-6.47-9.919Zm-28.6,12.317L350.394,250l2.111,6.708Z" transform="translate(-270.006 -199.981)" fill="#fff"/>
  <path id="Path_219" data-name="Path 219" d="M307.326,168l-12.281,12.749,7.758,8.2h22.14L346.7,168Z" transform="translate(-238.904 -148.45)" fill="#fff"/>
  <path id="Path_220" data-name="Path 220" d="M302.8,317.389l-7.758,8.2,12.235,12.7h39.37l-21.708-20.9Z" transform="translate(-238.905 -249.221)" fill="#fff"/>
  <path id="Path_239" data-name="Path 239" d="M135.178,244.393v8.132h-6.755v-8.132h-4.6v19.839h4.6v-7.521h6.755v7.521h4.634V244.393Z" transform="translate(-88.701 -244.393)" fill="#fff" opacity="0"/>
  <path id="Path_242" data-name="Path 242" d="M135.178,244.393v8.132h-6.755v-8.132h-4.6v19.839h4.6v-7.521h6.755v7.521h4.634V244.393Z" transform="translate(-123.402 -154.974)" fill="#fff" opacity="0"/>
</svg>
